<?xml version="1.0" encoding="UTF-8" standalone="no"?>
<svg xmlns="http://www.w3.org/2000/svg" version="1.1" width="300" height="300" viewBox="0 0 300 300">
 <path fill="#59b312" d="M 300,0 300,300 0,300 0,0 Z" />
 <g fill="#fff" transform="translate(17.562988,43.000457)">
  <path d="m 97.471484,95.993296 q -2.7,0.7875 -5.2875,1.0125 -2.5875,0.3375 -5.175,0.3375 -5.625,0 -11.025,-1.2375 -5.2875,-1.125 -10.35,-2.5875 -4.95,-1.35 -9.5625,-2.5875 -4.6125,-1.125 -8.775,-1.125 -2.7,0 -5.175,0.675 l 0,-8.2125 q 1.575,-0.3375 3.0375,-0.5625 1.4625,-0.225 3.0375,-0.225 4.725,0 9.3375,1.125 4.725,1.2375 9.5625,2.5875 4.8375,1.4625 9.9,2.5875 5.0625,1.2375 10.6875,1.2375 4.95,0 9.7875,-1.125 l 0,8.1 z m -72.9,-58.6125 q 0,-19.6875 8.325,-30.15 8.325,-10.575 23.7375,-10.575 8.325,0 14.4,2.92499998 6.075,2.92500002 10.0125,8.32500002 4.05,5.2875 5.9625,12.825 1.9125,7.425 1.9125,16.65 0,19.6875 -8.4375,30.2625 -8.325,10.4625 -23.85,10.4625 -8.2125,0 -14.2875,-2.925 -5.9625,-2.925 -10.0125,-8.2125 -3.9375,-5.4 -5.85,-12.825 -1.9125,-7.5375 -1.9125,-16.7625 z m 9.9,0 q 0,6.525 1.2375,12.375 1.35,5.85 4.05,10.35 2.7,4.3875 6.8625,7.0875 4.275,2.5875 10.0125,2.5875 10.4625,0 16.425,-7.875 5.9625,-7.9875 5.9625,-24.525 0,-6.4125 -1.35,-12.2625 -1.2375,-5.9625 -4.05,-10.35 -2.7,-4.5 -6.975,-7.0875 -4.1625,-2.7 -10.0125,-2.7 -10.35,0 -16.3125,7.9875 -5.85,7.875 -5.85,24.4125 z" />
  <path d="m 165.26328,23.880796 1.125,-11.8125 -0.5625,0 -4.275,10.8 -20.475,35.55 -2.8125,0 -21.7125,-35.6625 -4.05,-10.6875 -0.5625,0 1.575,11.7 0,52.9875 -8.775,0 0,-78.75 6.975,0 24.6375,40.275 3.7125,8.775 0.225,0 3.4875,-9 23.5125,-40.05 7.3125,0 0,78.75 -9.3375,0 0,-52.875 z" />
  <path d="m 240.30254,76.755796 -46.575,0 0,-78.75 9.3375,0 0,70.425 37.2375,0 0,8.325 z" />
 </g>
 <g fill="#fff">
  <path d="m 74.176752,233.00624 1.8,13.05 0.1125,0 1.9125,-13.275 16.2,-52.5375 4.5,0 16.312498,52.7625 1.9125,13.05 0.1125,0 2.025,-13.275 13.275,-52.5375 9.1125,0 -21.9375,79.9875 -5.175,0 -15.974998,-52.7625 -2.025,-11.925 -0.5625,0 -2.025,12.0375 -15.975,52.65 -5.175,0 -22.5,-79.9875 9.9,0 14.175,52.7625 z" />
  <path d="m 187.25683,254.49374 q -3.375,2.7 -8.55,4.275 -5.0625,1.575 -10.8,1.575 -6.4125,0 -11.1375,-2.025 -4.725,-2.1375 -7.7625,-5.9625 -3.0375,-3.9375 -4.5,-9.3375 -1.4625,-5.4 -1.4625,-12.15 0,-14.4 6.4125,-21.9375 6.4125,-7.5375 18.3375,-7.5375 3.825,0 7.65,0.9 3.825,0.7875 6.8625,3.15 3.0375,2.3625 4.95,6.75 1.9125,4.275 1.9125,11.3625 0,3.7125 -0.675,8.2125 l -36.1125,0 q 0,4.95 1.0125,8.775 1.0125,3.825 3.15,6.525 2.1375,2.5875 5.5125,4.05 3.4875,1.35 8.4375,1.35 3.825,0 7.65,-1.35 3.825,-1.35 5.7375,-3.15 l 3.375,6.525 z m -19.35,-45.225 q -6.6375,0 -10.6875,3.4875 -3.9375,3.4875 -4.725,11.925 l 27.9,0 q 0,-8.55 -3.2625,-11.925 -3.2625,-3.4875 -9.225,-3.4875 z" />
  <path d="m 203.32324,180.24374 9,0 0,28.0125 0.45,0 q 2.5875,-3.2625 6.525,-5.0625 4.05,-1.8 8.775,-1.8 10.9125,0 16.3125,6.975 5.5125,6.975 5.5125,21.6 0,14.7375 -7.2,22.3875 -7.2,7.65 -20.25,7.65 -6.3,0 -11.475,-1.35 -5.0625,-1.35 -7.65,-2.925 l 0,-75.4875 z m 23.175,29.025 q -5.625,0 -9.1125,3.15 -3.4875,3.15 -5.0625,8.8875 l 0,28.35 q 2.1375,1.2375 5.175,1.9125 3.0375,0.5625 6.3,0.5625 7.65,0 12.15,-5.4 4.6125,-5.4 4.6125,-16.875 0,-4.3875 -0.7875,-8.2125 -0.7875,-3.825 -2.475,-6.525 -1.6875,-2.7 -4.3875,-4.275 -2.5875,-1.575 -6.4125,-1.575 z" />
 </g>
</svg>
